<?xml version="1.0" standalone="no"?><!DOCTYPE svg PUBLIC "-//W3C//DTD SVG 1.1//EN" "http://www.w3.org/Graphics/SVG/1.1/DTD/svg11.dtd"><svg t="1558335422126" class="icon" style="" viewBox="0 0 1024 1024" version="1.1" xmlns="http://www.w3.org/2000/svg" p-id="1388" xmlns:xlink="http://www.w3.org/1999/xlink" width="200" height="200"><defs><style type="text/css"></style></defs><path d="M772.266667 507.733333c51.2-98.133333 76.8-204.8 81.066667-320 0-25.6 0-51.2-4.266667-72.533333-4.266667-29.866667-12.8-55.466667-29.866667-81.066667-12.8-21.333333-34.133333-29.866667-59.733333-25.6-12.8 0-25.6 4.266667-38.4 12.8-85.333333 38.4-153.6 93.866667-213.333333 157.866667-42.666667 51.2-81.066667 106.666667-110.933333 166.4C392.533333 349.866667 388.266667 354.133333 379.733333 358.4c-76.8 12.8-149.333333 42.666667-204.8 93.866667-29.866667 25.6-51.2 55.466667-55.466667 93.866667-4.266667 38.4 8.533333 72.533333 59.733333 72.533333 34.133333 0 72.533333 0 106.666667 4.266667 8.533333 0 17.066667 4.266667 17.066667 12.8 0 8.533333 4.266667 12.8 8.533333 21.333333 12.8 25.6 38.4 38.4 64 55.466667C384 712.533333 388.266667 716.8 388.266667 725.333333c4.266667 25.6 29.866667 42.666667 55.466667 29.866667 12.8-8.533333 25.6-4.266667 34.133333 0 4.266667 0 4.266667 4.266667 8.533333 4.266667 38.4 12.8 72.533333 21.333333 110.933333 0 4.266667-4.266667 8.533333 0 8.533333 4.266667 8.533333 12.8 17.066667 21.333333 25.6 34.133333 17.066667 21.333333 29.866667 42.666667 51.2 59.733333 12.8 8.533333 25.6 17.066667 42.666667 12.8 17.066667-4.266667 29.866667-21.333333 34.133333-34.133333 21.333333-38.4 29.866667-76.8 29.866667-119.466667 4.266667-59.733333-4.266667-115.2-29.866667-170.666667C763.733333 529.066667 763.733333 516.266667 772.266667 507.733333zM311.466667 558.933333c-4.266667 21.333333-4.266667 21.333333-29.866667 17.066667C256 571.733333 234.666667 571.733333 213.333333 571.733333c-12.8 0-25.6 0-38.4 0-8.533333 0-8.533333-4.266667-8.533333-8.533333 0-21.333333 8.533333-38.4 21.333333-55.466667 42.666667-55.466667 102.4-85.333333 170.666667-102.4 0 0 4.266667 0 4.266667 0 0 4.266667 0 4.266667 0 8.533333C341.333333 460.8 324.266667 507.733333 311.466667 558.933333zM456.533333 691.2c-8.533333 8.533333-12.8 12.8-25.6 21.333333 0-29.866667 4.266667-59.733333 12.8-89.6 12.8-42.666667 29.866667-89.6 59.733333-123.733333 12.8-12.8 25.6-25.6 42.666667-34.133333 8.533333-4.266667 12.8-4.266667 12.8 8.533333 0 25.6-8.533333 46.933333-17.066667 72.533333C529.066667 597.333333 499.2 648.533333 456.533333 691.2zM729.6 802.133333c-12.8 25.6-8.533333 25.6-25.6 4.266667-21.333333-25.6-38.4-51.2-59.733333-72.533333C640 729.6 640 725.333333 640 725.333333c34.133333-42.666667 59.733333-98.133333 89.6-145.066667 0 0 0 0 4.266667-4.266667 8.533333 25.6 17.066667 51.2 17.066667 81.066667C755.2 708.266667 750.933333 755.2 729.6 802.133333zM712.533333 516.266667c-29.866667 51.2-55.466667 98.133333-85.333333 149.333333-8.533333 12.8-17.066667 25.6-25.6 34.133333-21.333333 21.333333-46.933333 29.866667-76.8 21.333333-25.6-8.533333-25.6-8.533333-8.533333-25.6 46.933333-59.733333 76.8-123.733333 93.866667-196.266667 4.266667-12.8 4.266667-21.333333 4.266667-34.133333 0-42.666667-38.4-64-76.8-46.933333-38.4 17.066667-59.733333 42.666667-81.066667 76.8-29.866667 51.2-51.2 106.666667-64 162.133333 0 8.533333-4.266667 4.266667-8.533333 4.266667-29.866667-17.066667-38.4-38.4-29.866667-76.8 17.066667-76.8 51.2-145.066667 85.333333-213.333333 29.866667-59.733333 68.266667-115.2 115.2-166.4 55.466667-59.733333 119.466667-110.933333 196.266667-140.8 29.866667-12.8 29.866667-8.533333 42.666667 17.066667 8.533333 17.066667 12.8 38.4 12.8 59.733333 0 17.066667 4.266667 34.133333 4.266667 46.933333C802.133333 307.2 772.266667 413.866667 712.533333 516.266667zM477.866667 827.733333c-8.533333-4.266667-12.8-4.266667-12.8 4.266667-12.8 29.866667-25.6 55.466667-42.666667 85.333333-8.533333-17.066667-21.333333-29.866667-25.6-42.666667-4.266667-8.533333-8.533333-8.533333-12.8-4.266667-12.8 8.533333-25.6 17.066667-42.666667 29.866667 4.266667-21.333333 4.266667-38.4 8.533333-55.466667 0-8.533333 0-8.533333-8.533333-4.266667-25.6 4.266667-51.2 8.533333-76.8 12.8 17.066667-34.133333 29.866667-64 46.933333-93.866667 4.266667-8.533333 4.266667-12.8-4.266667-17.066667-8.533333-4.266667-12.8-4.266667-21.333333-8.533333-8.533333-4.266667-12.8-4.266667-17.066667 4.266667-21.333333 42.666667-42.666667 85.333333-64 123.733333-8.533333 17.066667-17.066667 34.133333-25.6 51.2 34.133333-4.266667 68.266667-12.8 102.4-17.066667 8.533333 0 8.533333 0 8.533333 8.533333 0 12.8-4.266667 25.6-4.266667 34.133333-4.266667 21.333333-8.533333 38.4-8.533333 59.733333 34.133333-21.333333 64-42.666667 93.866667-64 4.266667-4.266667 8.533333-4.266667 12.8 4.266667 4.266667 8.533333 8.533333 17.066667 17.066667 25.6 8.533333 17.066667 21.333333 34.133333 34.133333 51.2 0-4.266667 4.266667-4.266667 4.266667-4.266667 25.6-55.466667 51.2-106.666667 76.8-162.133333 4.266667-4.266667 0-8.533333-4.266667-12.8C494.933333 836.266667 486.4 832 477.866667 827.733333zM648.533333 183.466667c-64 0-115.2 51.2-115.2 110.933333 0 59.733333 51.2 106.666667 115.2 106.666667 59.733333 0 115.2-51.2 115.2-106.666667C763.733333 230.4 712.533333 179.2 648.533333 183.466667zM648.533333 354.133333c-34.133333 0-64-29.866667-64-64 0-34.133333 29.866667-64 68.266667-64 38.4 0 68.266667 29.866667 64 64C716.8 324.266667 686.933333 354.133333 648.533333 354.133333z" p-id="1389" fill="#bfbfbf"></path></svg>